<svg viewBox="0 0 100 100" xmlns="http://www.w3.org/2000/svg">
  <!-- Background -->
  <rect width="100" height="100" fill="#1e40af"/>
  
  <!-- Professional Delivery Scooter -->
  <!-- Scooter Frame -->
  <rect x="15" y="65" width="30" height="6" rx="3" fill="white" />
  <!-- Scooter Handlebar -->
  <rect x="12" y="50" width="4" height="15" rx="2" fill="white" />
  <!-- Scooter Seat -->
  <rect x="20" y="60" width="18" height="6" rx="3" fill="white" />
  
  <!-- Delivery Box -->
  <rect x="40" y="45" width="15" height="20" rx="2" fill="white" />
  <!-- Box Details -->
  <rect x="42" y="47" width="11" height="2" rx="1" fill="#1e40af" opacity="0.4" />
  <rect x="42" y="50" width="11" height="1" rx="0.5" fill="#1e40af" opacity="0.3" />
  <rect x="42" y="52" width="11" height="1" rx="0.5" fill="#1e40af" opacity="0.2" />
  
  <!-- Delivery Person -->
  <circle cx="30" cy="50" r="5" fill="white" />
  <rect x="27" y="55" width="6" height="10" rx="3" fill="white" />
  <!-- Cap -->
  <rect x="27" y="44" width="6" height="4" rx="2" fill="white" />
  
  <!-- Speed Lines - Motion Effect -->
  <line x1="58" y1="70" x2="70" y2="70" stroke="white" stroke-width="3" opacity="0.7" />
  <line x1="60" y1="75" x2="68" y2="75" stroke="white" stroke-width="2" opacity="0.5" />
  <line x1="62" y1="80" x2="66" y2="80" stroke="white" stroke-width="2" opacity="0.3" />
  
  <!-- Additional Speed Lines -->
  <line x1="58" y1="60" x2="70" y2="60" stroke="white" stroke-width="2" opacity="0.4" />
  <line x1="60" y1="55" x2="68" y2="55" stroke="white" stroke-width="2" opacity="0.3" />
</svg>
